<?xml version="1.0" encoding="UTF-8"?>
<!DOCTYPE svg PUBLIC "-//W3C//DTD SVG 1.1//EN" "http://www.w3.org/Graphics/SVG/1.1/DTD/svg11.dtd">
<svg version="1.2" width="262.5mm" height="371.25mm" viewBox="0 0 26250 37125" preserveAspectRatio="xMidYMid" fill-rule="evenodd" stroke-width="28.222" stroke-linejoin="round" xmlns="http://www.w3.org/2000/svg" xmlns:ooo="http://xml.openoffice.org/svg/export" xmlns:xlink="http://www.w3.org/1999/xlink" xmlns:presentation="http://sun.com/xmlns/staroffice/presentation" xmlns:smil="http://www.w3.org/2001/SMIL20/" xmlns:anim="urn:oasis:names:tc:opendocument:xmlns:animation:1.0" xml:space="preserve">
 <defs class="ClipPathGroup">
  <clipPath id="presentation_clip_path" clipPathUnits="userSpaceOnUse">
   <rect x="0" y="0" width="26250" height="37125"/>
  </clipPath>
  <clipPath id="presentation_clip_path_shrink" clipPathUnits="userSpaceOnUse">
   <rect x="26" y="37" width="26198" height="37051"/>
  </clipPath>
 </defs>
 <defs class="TextShapeIndex">
  <g ooo:slide="id1" ooo:id-list="id3"/>
 </defs>
 <defs class="EmbeddedBulletChars">
  <g id="bullet-char-template-57356" transform="scale(0.00048828125,-0.00048828125)">
   <path d="M 580,1141 L 1163,571 580,0 -4,571 580,1141 Z"/>
  </g>
  <g id="bullet-char-template-57354" transform="scale(0.00048828125,-0.00048828125)">
   <path d="M 8,1128 L 1137,1128 1137,0 8,0 8,1128 Z"/>
  </g>
  <g id="bullet-char-template-10146" transform="scale(0.00048828125,-0.00048828125)">
   <path d="M 174,0 L 602,739 174,1481 1456,739 174,0 Z M 1358,739 L 309,1346 659,739 1358,739 Z"/>
  </g>
  <g id="bullet-char-template-10132" transform="scale(0.00048828125,-0.00048828125)">
   <path d="M 2015,739 L 1276,0 717,0 1260,543 174,543 174,936 1260,936 717,1481 1274,1481 2015,739 Z"/>
  </g>
  <g id="bullet-char-template-10007" transform="scale(0.00048828125,-0.00048828125)">
   <path d="M 0,-2 C -7,14 -16,27 -25,37 L 356,567 C 262,823 215,952 215,954 215,979 228,992 255,992 264,992 276,990 289,987 310,991 331,999 354,1012 L 381,999 492,748 772,1049 836,1024 860,1049 C 881,1039 901,1025 922,1006 886,937 835,863 770,784 769,783 710,716 594,584 L 774,223 C 774,196 753,168 711,139 L 727,119 C 717,90 699,76 672,76 641,76 570,178 457,381 L 164,-76 C 142,-110 111,-127 72,-127 30,-127 9,-110 8,-76 1,-67 -2,-52 -2,-32 -2,-23 -1,-13 0,-2 Z"/>
  </g>
  <g id="bullet-char-template-10004" transform="scale(0.00048828125,-0.00048828125)">
   <path d="M 285,-33 C 182,-33 111,30 74,156 52,228 41,333 41,471 41,549 55,616 82,672 116,743 169,778 240,778 293,778 328,747 346,684 L 369,508 C 377,444 397,411 428,410 L 1163,1116 C 1174,1127 1196,1133 1229,1133 1271,1133 1292,1118 1292,1087 L 1292,965 C 1292,929 1282,901 1262,881 L 442,47 C 390,-6 338,-33 285,-33 Z"/>
  </g>
  <g id="bullet-char-template-9679" transform="scale(0.00048828125,-0.00048828125)">
   <path d="M 813,0 C 632,0 489,54 383,161 276,268 223,411 223,592 223,773 276,916 383,1023 489,1130 632,1184 813,1184 992,1184 1136,1130 1245,1023 1353,916 1407,772 1407,592 1407,412 1353,268 1245,161 1136,54 992,0 813,0 Z"/>
  </g>
  <g id="bullet-char-template-8226" transform="scale(0.00048828125,-0.00048828125)">
   <path d="M 346,457 C 273,457 209,483 155,535 101,586 74,649 74,723 74,796 101,859 155,911 209,963 273,989 346,989 419,989 480,963 531,910 582,859 608,796 608,723 608,648 583,586 532,535 482,483 420,457 346,457 Z"/>
  </g>
  <g id="bullet-char-template-8211" transform="scale(0.00048828125,-0.00048828125)">
   <path d="M -4,459 L 1135,459 1135,606 -4,606 -4,459 Z"/>
  </g>
  <g id="bullet-char-template-61548" transform="scale(0.00048828125,-0.00048828125)">
   <path d="M 173,740 C 173,903 231,1043 346,1159 462,1274 601,1332 765,1332 928,1332 1067,1274 1183,1159 1299,1043 1357,903 1357,740 1357,577 1299,437 1183,322 1067,206 928,148 765,148 601,148 462,206 346,322 231,437 173,577 173,740 Z"/>
  </g>
 </defs>
 <defs class="TextEmbeddedBitmaps"/>
 <g>
  <g id="id2" class="Master_Slide">
   <g id="bg-id2" class="Background"/>
   <g id="bo-id2" class="BackgroundObjects"/>
  </g>
 </g>
 <g class="SlideGroup">
  <g>
   <g id="container-id1">
    <g id="id1" class="Slide" clip-path="url(#presentation_clip_path)">
     <g class="Page">
      <g class="com.sun.star.drawing.ClosedBezierShape">
       <g id="id3">
        <rect class="BoundingBox" stroke="none" fill="none" x="0" y="0" width="26252" height="26252"/>
        <path fill="rgb(255,255,255)" stroke="none" d="M 13126,0 C 7581,0 0,4191 0,13126 0,21833 7291,26251 13126,26251 23135,26251 26251,17482 26251,13126 26251,6697 21332,0 13126,0 Z M 10082,1235 C 8712,2403 7576,4336 6842,6733 5891,6170 5018,5472 4243,4661 5844,2982 7870,1803 10082,1235 Z M 3679,5292 C 4547,6196 5534,6966 6609,7576 6206,9141 5968,10878 5937,12702 L 858,12702 C 951,9978 1943,7379 3679,5292 Z M 3679,20959 C 1938,18872 951,16273 858,13549 L 5937,13549 C 5968,15379 6206,17110 6609,18675 5540,19290 4553,20055 3679,20959 Z M 4243,21595 C 5018,20784 5891,20086 6842,19523 7576,21915 8712,23853 10082,25021 7870,24448 5844,23269 4243,21595 Z M 12702,25373 C 10500,25093 8604,22634 7581,19109 9162,18309 10909,17859 12702,17792 L 12702,25373 Z M 12702,16949 C 10831,17011 9012,17471 7364,18278 7017,16831 6811,15234 6780,13549 L 12702,13549 12702,16949 Z M 12702,12702 L 6780,12702 C 6811,11017 7017,9420 7364,7973 9017,8780 10836,9240 12702,9302 L 12702,12702 Z M 12702,8459 C 10903,8397 9162,7942 7581,7142 8604,3612 10500,1158 12702,878 L 12702,8459 Z M 22572,5292 C 24308,7379 25300,9978 25393,12702 L 20319,12702 C 20288,10872 20050,9141 19647,7576 20717,6961 21704,6196 22572,5292 Z M 22008,4656 C 21233,5467 20360,6165 19409,6728 18675,4336 17539,2403 16169,1230 18381,1803 20407,2982 22008,4656 Z M 13549,878 C 15751,1158 17647,3617 18670,7142 17089,7942 15348,8392 13549,8459 L 13549,878 Z M 13549,9302 C 15420,9240 17239,8780 18887,7973 19234,9420 19440,11017 19471,12702 L 13549,12702 13549,9302 Z M 13549,13549 L 19471,13549 C 19440,15234 19234,16831 18887,18278 17239,17466 15420,17006 13549,16949 L 13549,13549 Z M 13549,25373 L 13549,17792 C 15348,17854 17089,18309 18670,19109 17647,22639 15751,25093 13549,25373 Z M 16169,25016 C 17539,23848 18675,21915 19409,19518 20360,20081 21233,20779 22008,21590 20407,23269 18381,24448 16169,25016 Z M 22572,20959 C 21704,20055 20717,19290 19647,18675 20050,17110 20288,15373 20319,13549 L 25393,13549 C 25300,16273 24308,18872 22572,20959 Z"/>
       </g>
      </g>
     </g>
    </g>
   </g>
  </g>
 </g>
</svg>