<?xml version="1.0" encoding="UTF-8"?>
<!DOCTYPE svg PUBLIC "-//W3C//DTD SVG 1.1//EN" "http://www.w3.org/Graphics/SVG/1.1/DTD/svg11.dtd">
<svg version="1.2" width="262.5mm" height="371.25mm" viewBox="0 0 26250 37125" preserveAspectRatio="xMidYMid" fill-rule="evenodd" stroke-width="28.222" stroke-linejoin="round" xmlns="http://www.w3.org/2000/svg" xmlns:ooo="http://xml.openoffice.org/svg/export" xmlns:xlink="http://www.w3.org/1999/xlink" xmlns:presentation="http://sun.com/xmlns/staroffice/presentation" xmlns:smil="http://www.w3.org/2001/SMIL20/" xmlns:anim="urn:oasis:names:tc:opendocument:xmlns:animation:1.0" xml:space="preserve">
 <defs class="ClipPathGroup">
  <clipPath id="presentation_clip_path" clipPathUnits="userSpaceOnUse">
   <rect x="0" y="0" width="26250" height="37125"/>
  </clipPath>
  <clipPath id="presentation_clip_path_shrink" clipPathUnits="userSpaceOnUse">
   <rect x="26" y="37" width="26198" height="37051"/>
  </clipPath>
 </defs>
 <defs class="TextShapeIndex">
  <g ooo:slide="id1" ooo:id-list="id3 id4 id5 id6 id7 id8 id9 id10"/>
 </defs>
 <defs class="EmbeddedBulletChars">
  <g id="bullet-char-template-57356" transform="scale(0.00048828125,-0.00048828125)">
   <path d="M 580,1141 L 1163,571 580,0 -4,571 580,1141 Z"/>
  </g>
  <g id="bullet-char-template-57354" transform="scale(0.00048828125,-0.00048828125)">
   <path d="M 8,1128 L 1137,1128 1137,0 8,0 8,1128 Z"/>
  </g>
  <g id="bullet-char-template-10146" transform="scale(0.00048828125,-0.00048828125)">
   <path d="M 174,0 L 602,739 174,1481 1456,739 174,0 Z M 1358,739 L 309,1346 659,739 1358,739 Z"/>
  </g>
  <g id="bullet-char-template-10132" transform="scale(0.00048828125,-0.00048828125)">
   <path d="M 2015,739 L 1276,0 717,0 1260,543 174,543 174,936 1260,936 717,1481 1274,1481 2015,739 Z"/>
  </g>
  <g id="bullet-char-template-10007" transform="scale(0.00048828125,-0.00048828125)">
   <path d="M 0,-2 C -7,14 -16,27 -25,37 L 356,567 C 262,823 215,952 215,954 215,979 228,992 255,992 264,992 276,990 289,987 310,991 331,999 354,1012 L 381,999 492,748 772,1049 836,1024 860,1049 C 881,1039 901,1025 922,1006 886,937 835,863 770,784 769,783 710,716 594,584 L 774,223 C 774,196 753,168 711,139 L 727,119 C 717,90 699,76 672,76 641,76 570,178 457,381 L 164,-76 C 142,-110 111,-127 72,-127 30,-127 9,-110 8,-76 1,-67 -2,-52 -2,-32 -2,-23 -1,-13 0,-2 Z"/>
  </g>
  <g id="bullet-char-template-10004" transform="scale(0.00048828125,-0.00048828125)">
   <path d="M 285,-33 C 182,-33 111,30 74,156 52,228 41,333 41,471 41,549 55,616 82,672 116,743 169,778 240,778 293,778 328,747 346,684 L 369,508 C 377,444 397,411 428,410 L 1163,1116 C 1174,1127 1196,1133 1229,1133 1271,1133 1292,1118 1292,1087 L 1292,965 C 1292,929 1282,901 1262,881 L 442,47 C 390,-6 338,-33 285,-33 Z"/>
  </g>
  <g id="bullet-char-template-9679" transform="scale(0.00048828125,-0.00048828125)">
   <path d="M 813,0 C 632,0 489,54 383,161 276,268 223,411 223,592 223,773 276,916 383,1023 489,1130 632,1184 813,1184 992,1184 1136,1130 1245,1023 1353,916 1407,772 1407,592 1407,412 1353,268 1245,161 1136,54 992,0 813,0 Z"/>
  </g>
  <g id="bullet-char-template-8226" transform="scale(0.00048828125,-0.00048828125)">
   <path d="M 346,457 C 273,457 209,483 155,535 101,586 74,649 74,723 74,796 101,859 155,911 209,963 273,989 346,989 419,989 480,963 531,910 582,859 608,796 608,723 608,648 583,586 532,535 482,483 420,457 346,457 Z"/>
  </g>
  <g id="bullet-char-template-8211" transform="scale(0.00048828125,-0.00048828125)">
   <path d="M -4,459 L 1135,459 1135,606 -4,606 -4,459 Z"/>
  </g>
  <g id="bullet-char-template-61548" transform="scale(0.00048828125,-0.00048828125)">
   <path d="M 173,740 C 173,903 231,1043 346,1159 462,1274 601,1332 765,1332 928,1332 1067,1274 1183,1159 1299,1043 1357,903 1357,740 1357,577 1299,437 1183,322 1067,206 928,148 765,148 601,148 462,206 346,322 231,437 173,577 173,740 Z"/>
  </g>
 </defs>
 <defs class="TextEmbeddedBitmaps"/>
 <g>
  <g id="id2" class="Master_Slide">
   <g id="bg-id2" class="Background"/>
   <g id="bo-id2" class="BackgroundObjects"/>
  </g>
 </g>
 <g class="SlideGroup">
  <g>
   <g id="container-id1">
    <g id="id1" class="Slide" clip-path="url(#presentation_clip_path)">
     <g class="Page">
      <g class="com.sun.star.drawing.PolyPolygonShape">
       <g id="id3">
        <rect class="BoundingBox" stroke="none" fill="none" x="14438" y="19250" width="877" height="877"/>
        <path fill="rgb(255,255,255)" stroke="none" d="M 14876,20126 L 14438,20126 14438,19250 15314,19250 15314,20126 14876,20126 Z"/>
       </g>
      </g>
      <g class="com.sun.star.drawing.ClosedBezierShape">
       <g id="id4">
        <rect class="BoundingBox" stroke="none" fill="none" x="-1" y="0" width="26254" height="26252"/>
        <path fill="rgb(255,255,255)" stroke="none" d="M 19688,0 C 16596,0 14000,4118 13304,10063 L 10063,10063 C 9821,10063 9625,10258 9625,10500 L 9625,11813 7234,11813 5614,9383 C 5533,9261 5396,9188 5250,9188 L 437,9188 C 276,9188 128,9277 52,9419 -25,9561 -16,9734 73,9868 L 1750,12383 1750,13868 73,16383 C -16,16518 -25,16690 52,16832 128,16974 276,17063 437,17063 L 5250,17063 C 5396,17063 5533,16990 5614,16868 L 7234,14438 7875,14438 7875,15313 C 7875,15429 7921,15541 8003,15622 L 9188,16807 9188,17938 9188,21438 9188,25813 C 9188,26055 9383,26251 9625,26251 L 16626,26251 C 16867,26251 17063,26055 17063,25813 L 17063,25183 C 17882,25884 18775,26251 19688,26251 23368,26251 26251,20485 26251,13126 26251,5766 23368,0 19688,0 Z M 1255,10063 L 5016,10063 6183,11813 2422,11813 1255,10063 Z M 5016,16188 L 1255,16188 2422,14438 6183,14438 5016,16188 Z M 7000,13563 L 2625,13563 2625,12688 7000,12688 9625,12688 9625,13563 8313,13563 7000,13563 Z M 16188,24114 L 16188,25376 10063,25376 10063,21876 16188,21876 16188,24114 Z M 16188,21001 L 10063,21001 10063,18376 16188,18376 16188,21001 Z M 16188,12250 L 16188,14001 16188,17501 10063,17501 10063,16626 C 10063,16509 10017,16398 9935,16316 L 8750,15132 8750,14438 10063,14438 C 10305,14438 10500,14242 10500,14001 L 10500,12250 10500,10938 13695,10938 16188,10938 16188,12250 Z M 17032,10348 C 17027,10333 17020,10321 17014,10307 16997,10274 16976,10243 16951,10215 16942,10204 16934,10193 16924,10183 16888,10150 16850,10122 16806,10102 17295,6095 18635,3938 19688,3938 21137,3938 22751,7711 22751,13126 22751,18540 21137,22313 19688,22313 18675,22313 17622,20478 17063,17742 L 17063,14438 17965,14438 C 18044,16436 18369,20126 19688,20126 21389,20126 21438,13842 21438,13126 21438,12409 21389,6125 19688,6125 18369,6125 18044,9815 17965,11813 L 17063,11813 17063,10500 C 17063,10446 17050,10395 17032,10348 Z M 17063,13563 L 17063,12688 18388,12688 18813,12688 18813,13563 18388,13563 17063,13563 Z M 19251,11813 L 18841,11813 C 18956,8991 19409,7419 19689,7052 20020,7481 20563,9529 20563,13126 20563,16722 20020,18770 19689,19199 19409,18832 18956,17260 18841,14438 L 19251,14438 C 19493,14438 19688,14242 19688,14001 L 19688,12250 C 19688,12009 19493,11813 19251,11813 Z M 19688,25376 C 18783,25376 17878,24885 17063,23952 L 17063,21438 17063,20722 C 17761,22300 18678,23188 19688,23188 21597,23188 23626,19662 23626,13126 23626,6589 21597,3063 19688,3063 17895,3063 16440,5799 15933,10063 L 14184,10063 C 14834,4710 17113,875 19688,875 22771,875 25376,6485 25376,13126 25376,19766 22771,25376 19688,25376 Z"/>
       </g>
      </g>
      <g class="com.sun.star.drawing.PolyPolygonShape">
       <g id="id5">
        <rect class="BoundingBox" stroke="none" fill="none" x="7437" y="5249" width="5252" height="878"/>
        <path fill="rgb(255,255,255)" stroke="none" d="M 10063,6126 L 7437,6126 7437,5250 12688,5250 12688,6126 10063,6126 Z"/>
       </g>
      </g>
      <g class="com.sun.star.drawing.PolyPolygonShape">
       <g id="id6">
        <rect class="BoundingBox" stroke="none" fill="none" x="5687" y="5249" width="878" height="878"/>
        <path fill="rgb(255,255,255)" stroke="none" d="M 6126,6126 L 5688,6126 5688,5250 6564,5250 6564,6126 6126,6126 Z"/>
       </g>
      </g>
      <g class="com.sun.star.drawing.PolyPolygonShape">
       <g id="id7">
        <rect class="BoundingBox" stroke="none" fill="none" x="3938" y="5249" width="877" height="878"/>
        <path fill="rgb(255,255,255)" stroke="none" d="M 4376,6126 L 3938,6126 3938,5250 4814,5250 4814,6126 4376,6126 Z"/>
       </g>
      </g>
      <g class="com.sun.star.drawing.PolyPolygonShape">
       <g id="id8">
        <rect class="BoundingBox" stroke="none" fill="none" x="5688" y="7000" width="5252" height="877"/>
        <path fill="rgb(255,255,255)" stroke="none" d="M 8314,7876 L 5688,7876 5688,7000 10939,7000 10939,7876 8314,7876 Z"/>
       </g>
      </g>
      <g class="com.sun.star.drawing.PolyPolygonShape">
       <g id="id9">
        <rect class="BoundingBox" stroke="none" fill="none" x="3938" y="7000" width="877" height="877"/>
        <path fill="rgb(255,255,255)" stroke="none" d="M 4376,7876 L 3938,7876 3938,7000 4814,7000 4814,7876 4376,7876 Z"/>
       </g>
      </g>
      <g class="com.sun.star.drawing.PolyPolygonShape">
       <g id="id10">
        <rect class="BoundingBox" stroke="none" fill="none" x="2188" y="7000" width="877" height="877"/>
        <path fill="rgb(255,255,255)" stroke="none" d="M 2626,7876 L 2188,7876 2188,7000 3064,7000 3064,7876 2626,7876 Z"/>
       </g>
      </g>
     </g>
    </g>
   </g>
  </g>
 </g>
</svg>