<?xml version="1.0" encoding="UTF-8"?>
<!DOCTYPE svg PUBLIC "-//W3C//DTD SVG 1.1//EN" "http://www.w3.org/Graphics/SVG/1.1/DTD/svg11.dtd">
<svg version="1.2" width="180.62mm" height="180.62mm" viewBox="0 0 18062 18062" preserveAspectRatio="xMidYMid" fill-rule="evenodd" stroke-width="28.222" stroke-linejoin="round" xmlns="http://www.w3.org/2000/svg" xmlns:ooo="http://xml.openoffice.org/svg/export" xmlns:xlink="http://www.w3.org/1999/xlink" xmlns:presentation="http://sun.com/xmlns/staroffice/presentation" xmlns:smil="http://www.w3.org/2001/SMIL20/" xmlns:anim="urn:oasis:names:tc:opendocument:xmlns:animation:1.0" xml:space="preserve">
 <defs class="ClipPathGroup">
  <clipPath id="presentation_clip_path" clipPathUnits="userSpaceOnUse">
   <rect x="0" y="0" width="18062" height="18062"/>
  </clipPath>
  <clipPath id="presentation_clip_path_shrink" clipPathUnits="userSpaceOnUse">
   <rect x="18" y="18" width="18026" height="18026"/>
  </clipPath>
 </defs>
 <defs class="TextShapeIndex">
  <g ooo:slide="id1" ooo:id-list="id3 id4 id5 id6"/>
 </defs>
 <defs class="EmbeddedBulletChars">
  <g id="bullet-char-template-57356" transform="scale(0.00048828125,-0.00048828125)">
   <path d="M 580,1141 L 1163,571 580,0 -4,571 580,1141 Z"/>
  </g>
  <g id="bullet-char-template-57354" transform="scale(0.00048828125,-0.00048828125)">
   <path d="M 8,1128 L 1137,1128 1137,0 8,0 8,1128 Z"/>
  </g>
  <g id="bullet-char-template-10146" transform="scale(0.00048828125,-0.00048828125)">
   <path d="M 174,0 L 602,739 174,1481 1456,739 174,0 Z M 1358,739 L 309,1346 659,739 1358,739 Z"/>
  </g>
  <g id="bullet-char-template-10132" transform="scale(0.00048828125,-0.00048828125)">
   <path d="M 2015,739 L 1276,0 717,0 1260,543 174,543 174,936 1260,936 717,1481 1274,1481 2015,739 Z"/>
  </g>
  <g id="bullet-char-template-10007" transform="scale(0.00048828125,-0.00048828125)">
   <path d="M 0,-2 C -7,14 -16,27 -25,37 L 356,567 C 262,823 215,952 215,954 215,979 228,992 255,992 264,992 276,990 289,987 310,991 331,999 354,1012 L 381,999 492,748 772,1049 836,1024 860,1049 C 881,1039 901,1025 922,1006 886,937 835,863 770,784 769,783 710,716 594,584 L 774,223 C 774,196 753,168 711,139 L 727,119 C 717,90 699,76 672,76 641,76 570,178 457,381 L 164,-76 C 142,-110 111,-127 72,-127 30,-127 9,-110 8,-76 1,-67 -2,-52 -2,-32 -2,-23 -1,-13 0,-2 Z"/>
  </g>
  <g id="bullet-char-template-10004" transform="scale(0.00048828125,-0.00048828125)">
   <path d="M 285,-33 C 182,-33 111,30 74,156 52,228 41,333 41,471 41,549 55,616 82,672 116,743 169,778 240,778 293,778 328,747 346,684 L 369,508 C 377,444 397,411 428,410 L 1163,1116 C 1174,1127 1196,1133 1229,1133 1271,1133 1292,1118 1292,1087 L 1292,965 C 1292,929 1282,901 1262,881 L 442,47 C 390,-6 338,-33 285,-33 Z"/>
  </g>
  <g id="bullet-char-template-9679" transform="scale(0.00048828125,-0.00048828125)">
   <path d="M 813,0 C 632,0 489,54 383,161 276,268 223,411 223,592 223,773 276,916 383,1023 489,1130 632,1184 813,1184 992,1184 1136,1130 1245,1023 1353,916 1407,772 1407,592 1407,412 1353,268 1245,161 1136,54 992,0 813,0 Z"/>
  </g>
  <g id="bullet-char-template-8226" transform="scale(0.00048828125,-0.00048828125)">
   <path d="M 346,457 C 273,457 209,483 155,535 101,586 74,649 74,723 74,796 101,859 155,911 209,963 273,989 346,989 419,989 480,963 531,910 582,859 608,796 608,723 608,648 583,586 532,535 482,483 420,457 346,457 Z"/>
  </g>
  <g id="bullet-char-template-8211" transform="scale(0.00048828125,-0.00048828125)">
   <path d="M -4,459 L 1135,459 1135,606 -4,606 -4,459 Z"/>
  </g>
  <g id="bullet-char-template-61548" transform="scale(0.00048828125,-0.00048828125)">
   <path d="M 173,740 C 173,903 231,1043 346,1159 462,1274 601,1332 765,1332 928,1332 1067,1274 1183,1159 1299,1043 1357,903 1357,740 1357,577 1299,437 1183,322 1067,206 928,148 765,148 601,148 462,206 346,322 231,437 173,577 173,740 Z"/>
  </g>
 </defs>
 <defs class="TextEmbeddedBitmaps"/>
 <g>
  <g id="id2" class="Master_Slide">
   <g id="bg-id2" class="Background"/>
   <g id="bo-id2" class="BackgroundObjects"/>
  </g>
 </g>
 <g class="SlideGroup">
  <g>
   <g id="container-id1">
    <g id="id1" class="Slide" clip-path="url(#presentation_clip_path)">
     <g class="Page">
      <g class="com.sun.star.drawing.ClosedBezierShape">
       <g id="id3">
        <rect class="BoundingBox" stroke="none" fill="none" x="282" y="564" width="17500" height="16935"/>
        <path fill="rgb(255,255,255)" stroke="none" d="M 17499,15805 L 16087,15805 16087,6773 C 16087,6721 16076,6677 16050,6632 16024,6587 15991,6555 15946,6529 15901,6503 15857,6491 15805,6491 L 11572,6491 11572,846 C 11572,794 11560,750 11534,705 11508,660 11475,628 11430,602 11385,576 11341,564 11289,564 L 6773,564 C 6722,564 6677,576 6632,602 6587,628 6555,660 6529,705 6503,750 6491,794 6491,846 L 6491,4233 2258,4233 C 2206,4233 2162,4245 2117,4271 2072,4297 2039,4329 2013,4374 1987,4419 1975,4463 1975,4515 L 1975,15805 564,15805 C 512,15805 468,15817 423,15843 378,15869 346,15901 320,15946 294,15991 282,16035 282,16087 L 282,17216 C 282,17268 294,17312 320,17357 346,17402 378,17435 423,17461 468,17486 512,17498 564,17498 L 17499,17498 C 17550,17498 17595,17486 17640,17461 17685,17435 17717,17402 17743,17357 17769,17312 17781,17268 17781,17216 L 17781,16087 C 17781,16035 17769,15991 17743,15946 17717,15901 17685,15869 17640,15843 17595,15817 17550,15805 17499,15805 Z M 11572,7055 L 15523,7055 15523,15805 11572,15805 11572,7055 Z M 7056,1128 L 11007,1128 11007,15805 7056,15805 7056,1128 Z M 2540,4798 L 6491,4798 6491,15805 2540,15805 2540,4798 Z M 17216,16934 L 846,16934 846,16369 17216,16369 17216,16934 Z"/>
       </g>
      </g>
      <g class="com.sun.star.drawing.ClosedBezierShape">
       <g id="id4">
        <rect class="BoundingBox" stroke="none" fill="none" x="8467" y="1692" width="849" height="2825"/>
        <path fill="rgb(255,255,255)" stroke="none" d="M 8750,2258 L 8750,4234 C 8750,4286 8761,4330 8787,4375 8813,4420 8846,4452 8891,4478 8936,4504 8980,4516 9032,4516 9084,4516 9128,4504 9173,4478 9218,4452 9251,4420 9277,4375 9303,4330 9315,4286 9315,4234 L 9315,1975 C 9315,1923 9303,1879 9277,1834 9251,1789 9218,1757 9173,1731 9128,1705 9084,1693 9032,1693 L 8750,1693 C 8698,1693 8653,1705 8608,1731 8563,1757 8531,1789 8505,1834 8479,1879 8467,1923 8467,1975 8467,2027 8479,2071 8505,2116 8531,2161 8563,2194 8608,2220 8653,2246 8698,2258 8750,2258 Z"/>
       </g>
      </g>
      <g class="com.sun.star.drawing.ClosedBezierShape">
       <g id="id5">
        <rect class="BoundingBox" stroke="none" fill="none" x="12699" y="7620" width="1696" height="2824"/>
        <path fill="rgb(255,255,255)" stroke="none" d="M 12982,9879 C 12930,9879 12886,9890 12841,9916 12796,9942 12764,9975 12738,10020 12712,10065 12700,10109 12700,10161 12700,10213 12712,10257 12738,10302 12764,10347 12796,10379 12841,10405 12886,10431 12930,10443 12982,10443 L 14112,10443 C 14164,10443 14208,10431 14253,10405 14298,10379 14331,10347 14357,10302 14382,10257 14394,10213 14394,10161 L 14394,7902 C 14394,7850 14382,7806 14357,7761 14331,7716 14298,7684 14253,7658 14208,7632 14164,7620 14112,7620 L 12982,7620 C 12930,7620 12886,7632 12841,7658 12796,7684 12764,7716 12738,7761 12712,7806 12700,7850 12700,7902 12700,7954 12712,7998 12738,8043 12764,8088 12796,8121 12841,8147 12886,8173 12930,8185 12982,8185 L 13830,8185 13830,8749 13265,8749 C 13213,8749 13169,8761 13124,8787 13079,8813 13046,8845 13020,8890 12994,8935 12982,8980 12982,9032 12982,9084 12994,9128 13020,9173 13046,9218 13079,9250 13124,9276 13169,9302 13213,9314 13265,9314 L 13830,9314 13830,9879 12982,9879 Z"/>
       </g>
      </g>
      <g class="com.sun.star.drawing.ClosedBezierShape">
       <g id="id6">
        <rect class="BoundingBox" stroke="none" fill="none" x="3669" y="5362" width="1695" height="2824"/>
        <path fill="rgb(255,255,255)" stroke="none" d="M 5081,5362 L 3951,5362 C 3899,5362 3855,5374 3810,5400 3765,5426 3733,5458 3707,5503 3681,5548 3669,5592 3669,5644 3669,5696 3681,5740 3707,5785 3733,5830 3765,5863 3810,5889 3855,5915 3899,5927 3951,5927 L 4799,5927 4799,6092 3752,7139 3752,7139 C 3733,7157 3720,7175 3707,7197 3681,7242 3669,7286 3669,7338 L 3669,7338 3669,7903 C 3669,7955 3681,7999 3707,8044 3733,8089 3765,8121 3810,8147 3855,8173 3899,8185 3951,8185 L 5081,8185 C 5133,8185 5177,8173 5222,8147 5267,8121 5300,8089 5326,8044 5351,7999 5363,7955 5363,7903 5363,7851 5351,7807 5326,7762 5300,7717 5267,7684 5222,7658 5177,7632 5133,7621 5081,7621 L 4234,7621 4234,7455 5281,6409 C 5299,6390 5313,6373 5326,6350 5351,6305 5363,6261 5363,6209 L 5363,6209 5363,5644 C 5363,5592 5351,5548 5326,5503 5300,5458 5267,5426 5222,5400 5177,5374 5133,5362 5081,5362 Z"/>
       </g>
      </g>
     </g>
    </g>
   </g>
  </g>
 </g>
</svg>