<?xml version="1.0" encoding="UTF-8"?>
<!DOCTYPE svg PUBLIC "-//W3C//DTD SVG 1.1//EN" "http://www.w3.org/Graphics/SVG/1.1/DTD/svg11.dtd">
<svg version="1.2" width="262.5mm" height="371.25mm" viewBox="0 0 26250 37125" preserveAspectRatio="xMidYMid" fill-rule="evenodd" stroke-width="28.222" stroke-linejoin="round" xmlns="http://www.w3.org/2000/svg" xmlns:ooo="http://xml.openoffice.org/svg/export" xmlns:xlink="http://www.w3.org/1999/xlink" xmlns:presentation="http://sun.com/xmlns/staroffice/presentation" xmlns:smil="http://www.w3.org/2001/SMIL20/" xmlns:anim="urn:oasis:names:tc:opendocument:xmlns:animation:1.0" xml:space="preserve">
 <defs class="ClipPathGroup">
  <clipPath id="presentation_clip_path" clipPathUnits="userSpaceOnUse">
   <rect x="0" y="0" width="26250" height="37125"/>
  </clipPath>
  <clipPath id="presentation_clip_path_shrink" clipPathUnits="userSpaceOnUse">
   <rect x="26" y="37" width="26198" height="37051"/>
  </clipPath>
 </defs>
 <defs class="TextShapeIndex">
  <g ooo:slide="id1" ooo:id-list="id3 id4 id5 id6 id7"/>
 </defs>
 <defs class="EmbeddedBulletChars">
  <g id="bullet-char-template-57356" transform="scale(0.00048828125,-0.00048828125)">
   <path d="M 580,1141 L 1163,571 580,0 -4,571 580,1141 Z"/>
  </g>
  <g id="bullet-char-template-57354" transform="scale(0.00048828125,-0.00048828125)">
   <path d="M 8,1128 L 1137,1128 1137,0 8,0 8,1128 Z"/>
  </g>
  <g id="bullet-char-template-10146" transform="scale(0.00048828125,-0.00048828125)">
   <path d="M 174,0 L 602,739 174,1481 1456,739 174,0 Z M 1358,739 L 309,1346 659,739 1358,739 Z"/>
  </g>
  <g id="bullet-char-template-10132" transform="scale(0.00048828125,-0.00048828125)">
   <path d="M 2015,739 L 1276,0 717,0 1260,543 174,543 174,936 1260,936 717,1481 1274,1481 2015,739 Z"/>
  </g>
  <g id="bullet-char-template-10007" transform="scale(0.00048828125,-0.00048828125)">
   <path d="M 0,-2 C -7,14 -16,27 -25,37 L 356,567 C 262,823 215,952 215,954 215,979 228,992 255,992 264,992 276,990 289,987 310,991 331,999 354,1012 L 381,999 492,748 772,1049 836,1024 860,1049 C 881,1039 901,1025 922,1006 886,937 835,863 770,784 769,783 710,716 594,584 L 774,223 C 774,196 753,168 711,139 L 727,119 C 717,90 699,76 672,76 641,76 570,178 457,381 L 164,-76 C 142,-110 111,-127 72,-127 30,-127 9,-110 8,-76 1,-67 -2,-52 -2,-32 -2,-23 -1,-13 0,-2 Z"/>
  </g>
  <g id="bullet-char-template-10004" transform="scale(0.00048828125,-0.00048828125)">
   <path d="M 285,-33 C 182,-33 111,30 74,156 52,228 41,333 41,471 41,549 55,616 82,672 116,743 169,778 240,778 293,778 328,747 346,684 L 369,508 C 377,444 397,411 428,410 L 1163,1116 C 1174,1127 1196,1133 1229,1133 1271,1133 1292,1118 1292,1087 L 1292,965 C 1292,929 1282,901 1262,881 L 442,47 C 390,-6 338,-33 285,-33 Z"/>
  </g>
  <g id="bullet-char-template-9679" transform="scale(0.00048828125,-0.00048828125)">
   <path d="M 813,0 C 632,0 489,54 383,161 276,268 223,411 223,592 223,773 276,916 383,1023 489,1130 632,1184 813,1184 992,1184 1136,1130 1245,1023 1353,916 1407,772 1407,592 1407,412 1353,268 1245,161 1136,54 992,0 813,0 Z"/>
  </g>
  <g id="bullet-char-template-8226" transform="scale(0.00048828125,-0.00048828125)">
   <path d="M 346,457 C 273,457 209,483 155,535 101,586 74,649 74,723 74,796 101,859 155,911 209,963 273,989 346,989 419,989 480,963 531,910 582,859 608,796 608,723 608,648 583,586 532,535 482,483 420,457 346,457 Z"/>
  </g>
  <g id="bullet-char-template-8211" transform="scale(0.00048828125,-0.00048828125)">
   <path d="M -4,459 L 1135,459 1135,606 -4,606 -4,459 Z"/>
  </g>
  <g id="bullet-char-template-61548" transform="scale(0.00048828125,-0.00048828125)">
   <path d="M 173,740 C 173,903 231,1043 346,1159 462,1274 601,1332 765,1332 928,1332 1067,1274 1183,1159 1299,1043 1357,903 1357,740 1357,577 1299,437 1183,322 1067,206 928,148 765,148 601,148 462,206 346,322 231,437 173,577 173,740 Z"/>
  </g>
 </defs>
 <defs class="TextEmbeddedBitmaps"/>
 <g>
  <g id="id2" class="Master_Slide">
   <g id="bg-id2" class="Background"/>
   <g id="bo-id2" class="BackgroundObjects"/>
  </g>
 </g>
 <g class="SlideGroup">
  <g>
   <g id="container-id1">
    <g id="id1" class="Slide" clip-path="url(#presentation_clip_path)">
     <g class="Page">
      <g class="com.sun.star.drawing.ClosedBezierShape">
       <g id="id3">
        <rect class="BoundingBox" stroke="none" fill="none" x="0" y="2188" width="26252" height="21878"/>
        <path fill="rgb(255,255,255)" stroke="none" d="M 24403,2188 L 1848,2188 C 831,2186 5,3006 0,4023 L 0,18000 C 5,19016 831,19837 1848,19834 L 11480,19834 11480,23189 5875,23189 C 5634,23189 5438,23385 5438,23626 5438,23868 5634,24064 5875,24064 L 20376,24064 C 20617,24064 20813,23868 20813,23626 20813,23385 20617,23189 20376,23189 L 14771,23189 14771,19834 24403,19834 C 25420,19837 26246,19016 26251,18000 L 26251,4023 C 26246,3006 25420,2186 24403,2188 Z M 13896,23189 L 12355,23189 12355,19834 13896,19834 13896,23189 Z M 25376,18000 C 25372,18533 24937,18962 24403,18959 L 1848,18959 C 1314,18962 879,18533 875,18000 L 875,16814 25376,16814 25376,18000 Z M 25376,15939 L 875,15939 875,4023 C 879,3490 1314,3060 1848,3063 L 24403,3063 C 24937,3060 25372,3490 25376,4023 L 25376,15939 Z"/>
       </g>
      </g>
      <g class="com.sun.star.drawing.ClosedBezierShape">
       <g id="id4">
        <rect class="BoundingBox" stroke="none" fill="none" x="3938" y="3938" width="9627" height="9627"/>
        <path fill="rgb(255,255,255)" stroke="none" d="M 13564,9189 L 13564,8313 12164,8313 C 12086,7706 11848,7131 11472,6647 L 12462,5657 11843,5038 10853,6028 C 10370,5654 9795,5415 9189,5338 L 9189,3938 8313,3938 8313,5338 C 7706,5416 7131,5654 6647,6030 L 5657,5040 5038,5659 6028,6649 C 5654,7132 5415,7707 5338,8313 L 3938,8313 3938,9189 5338,9189 C 5415,9796 5653,10371 6028,10855 L 5038,11845 5657,12464 6647,11474 C 7131,11849 7706,12087 8313,12164 L 8313,13564 9189,13564 9189,12164 C 9796,12086 10371,11848 10855,11472 L 11845,12462 12464,11843 11474,10853 C 11848,10370 12087,9795 12164,9189 L 13564,9189 Z M 8751,11322 C 7331,11322 6180,10171 6180,8751 6182,7332 7332,6182 8751,6180 10171,6180 11322,7331 11322,8751 11322,10171 10171,11322 8751,11322 Z"/>
       </g>
      </g>
      <g class="com.sun.star.drawing.ClosedBezierShape">
       <g id="id5">
        <rect class="BoundingBox" stroke="none" fill="none" x="14000" y="9625" width="5252" height="5252"/>
        <path fill="rgb(255,255,255)" stroke="none" d="M 19251,12688 L 19251,11813 18656,11813 C 18603,11568 18505,11336 18368,11126 L 18791,10703 18172,10084 17750,10507 C 17540,10371 17307,10274 17063,10220 L 17063,9625 16188,9625 16188,10220 C 15944,10274 15711,10371 15501,10507 L 15079,10084 14460,10703 14883,11126 C 14746,11336 14648,11568 14595,11813 L 14000,11813 14000,12688 14595,12688 C 14648,12933 14746,13165 14883,13375 L 14460,13798 15079,14417 15501,13994 C 15711,14130 15944,14227 16188,14281 L 16188,14876 17063,14876 17063,14281 C 17307,14227 17540,14130 17750,13994 L 18172,14417 18791,13798 18368,13375 C 18505,13165 18603,12933 18656,12688 L 19251,12688 Z M 16626,13454 C 15961,13454 15422,12915 15422,12251 15423,11586 15961,11048 16626,11047 17290,11047 17829,11586 17829,12251 17829,12915 17290,13454 16626,13454 Z"/>
       </g>
      </g>
      <g class="com.sun.star.drawing.ClosedBezierShape">
       <g id="id6">
        <rect class="BoundingBox" stroke="none" fill="none" x="14000" y="4375" width="3502" height="3502"/>
        <path fill="rgb(255,255,255)" stroke="none" d="M 16983,5688 C 16850,5317 16559,5026 16188,4893 L 16188,4375 15313,4375 15313,4893 C 14942,5026 14651,5317 14518,5688 L 14000,5688 14000,6563 14518,6563 C 14651,6934 14942,7225 15313,7358 L 15313,7876 16188,7876 16188,7358 C 16559,7225 16850,6934 16983,6563 L 17501,6563 17501,5688 16983,5688 Z M 15751,6563 C 15509,6563 15313,6367 15313,6126 15313,5884 15509,5688 15751,5688 15992,5688 16188,5884 16188,6126 16188,6367 15992,6563 15751,6563 Z"/>
       </g>
      </g>
      <g class="com.sun.star.drawing.ClosedBezierShape">
       <g id="id7">
        <rect class="BoundingBox" stroke="none" fill="none" x="7000" y="7000" width="3502" height="3502"/>
        <path fill="rgb(255,255,255)" stroke="none" d="M 8751,7000 C 7784,7000 7000,7784 7000,8751 7000,9717 7784,10501 8751,10501 9717,10501 10501,9717 10501,8751 10501,7784 9717,7000 8751,7000 Z M 8751,9626 C 8267,9626 7875,9234 7875,8751 7875,8267 8267,7875 8751,7875 9234,7875 9626,8267 9626,8751 9626,9234 9234,9626 8751,9626 Z"/>
       </g>
      </g>
     </g>
    </g>
   </g>
  </g>
 </g>
</svg>